<?xml version="1.0"?>
<svg xmlns="http://www.w3.org/2000/svg" xmlns:xlink="http://www.w3.org/1999/xlink" version="1.1" id="Capa_1" x="0px" y="0px" viewBox="0 0 512 512" style="enable-background:new 0 0 512 512;" xml:space="preserve" width="25px" height="25px" class=""><g><path style="fill:#58B78C;" d="M363.521,11.951c-21.116-10.048-49.914-6.388-73.108,11.421  c-23.193,17.809-34.165,44.687-29.908,67.681c21.115,10.048,49.914,6.388,73.108-11.421  C356.806,61.823,367.777,34.945,363.521,11.951z" data-original="#58B78C"/><path style="fill:#46926F;" d="M260.501,98.778c-1.726,0-3.461-0.575-4.899-1.755c-3.298-2.708-3.776-7.577-1.068-10.875  c1.235-1.504,30.663-37.071,66.946-57.699c3.711-2.109,8.426-0.812,10.536,2.898c2.109,3.71,0.812,8.427-2.898,10.536  c-33.821,19.228-62.357,53.726-62.641,54.073C264.949,97.816,262.734,98.778,260.501,98.778z" data-original="#46926F"/><path style="fill:#C86D5C;" d="M278.519,111.958c-4.856-53.789-31.73-92.071-77.913-111.276c-4.77-1.983-10.229,0.519-11.917,5.402  l-4.382,12.669c-1.542,4.458,0.61,9.367,4.95,11.214c34.514,14.676,53.988,42.892,57.924,83.991  c3.372,35.203-6.097,66.975-6.192,67.291c-2.525,8.28,2.131,17.043,10.41,19.583c1.534,0.47,3.082,0.693,4.608,0.693  c6.714,0,12.928-4.343,14.999-11.096C271.466,188.927,282.242,153.179,278.519,111.958z" data-original="#C86D5C"/><path style="fill:#AD4F3D;" d="M247.886,126.935c0.447,29.673-6.815,54.038-6.898,54.315c-2.525,8.28,2.131,17.043,10.41,19.583  c1.534,0.47,3.082,0.693,4.608,0.693c6.714,0,12.928-4.343,14.999-11.096c0.431-1.403,9.861-32.701,8.064-70.424  c-7.82,3.241-15.528,7-23.069,11.263C253.318,129.752,250.608,128.323,247.886,126.935z" data-original="#AD4F3D"/><path style="fill:#FD6F71;" d="M268.402,153.841c-7.703,4.371-17.101,4.371-24.804,0C124.153,86.069-8.532,176.247,26.859,329.943  C63.48,488.982,142.998,512,182.758,512s47.083-10.464,73.242-10.464S289.482,512,329.242,512s119.28-23.018,155.9-182.058  C520.532,176.247,387.846,86.069,268.402,153.841z" data-original="#FD6F71" class=""/><path style="fill:#E36465;" d="M78.368,329.943c-24.584-106.766,31.938-182.88,108.785-196.69  C86.686,115.902-2.985,200.339,26.859,329.943C63.48,488.981,142.998,512,182.758,512c12.268,0,21.443-0.998,29.042-2.376  C169.52,500.75,108.968,462.84,78.368,329.943z" data-original="#E36465"/><g>
	<path style="fill:#3A484A;" d="M157.647,333.374c-4.267,0-7.726-3.459-7.726-7.726v-17.8c0-4.267,3.459-7.726,7.726-7.726   s7.726,3.459,7.726,7.726v17.8C165.374,329.915,161.914,333.374,157.647,333.374z" data-original="#3A484A" class="active-path"/>
	<path style="fill:#3A484A;" d="M354.353,333.374c-4.267,0-7.726-3.459-7.726-7.726v-17.8c0-4.267,3.459-7.726,7.726-7.726   s7.726,3.459,7.726,7.726v17.8C362.08,329.915,358.62,333.374,354.353,333.374z" data-original="#3A484A" class="active-path"/>
	<path style="fill:#3A484A;" d="M256,342.875c-11.69,0-22.659-4.877-30.092-13.382c-2.808-3.213-2.481-8.094,0.732-10.902   s8.093-2.481,10.902,0.732c4.499,5.147,11.226,8.098,18.458,8.098s13.959-2.951,18.458-8.098c2.808-3.213,7.689-3.541,10.902-0.732   s3.541,7.689,0.732,10.902C278.659,337.999,267.69,342.875,256,342.875z" data-original="#3A484A" class="active-path"/>
</g></g> </svg>
