<svg height="480pt" viewBox="-56 0 480 480" width="480pt" xmlns="http://www.w3.org/2000/svg"><g fill="#c18e59"><path d="m368 480h-304c-8.839844 0-16-7.160156-16-16v-48c0-8.839844 7.160156-16 16-16h304zm0 0"/><path d="m368 320h-304c-8.839844 0-16-7.160156-16-16v-48c0-8.839844 7.160156-16 16-16h304zm0 0"/><path d="m320 400h-304c-8.839844 0-16-7.160156-16-16v-48c0-8.839844 7.160156-16 16-16h304zm0 0"/></g><path d="m96 240h272v80h-272zm0 0" fill="#f0d365"/><path d="m48 320h272v80h-272zm0 0" fill="#7ecb92"/><path d="m96 400h272v80h-272zm0 0" fill="#4472b2"/><path d="m216 80h-16v-32c0-26.472656 21.527344-48 48-48v16c-17.648438 0-32 14.351562-32 32zm0 0" fill="#c18e59"/><path d="m274 205.425781 38.359375-71.242187c5.015625-9.3125 7.640625-19.71875 7.640625-30.296875 0-35.277344-28.609375-63.886719-63.886719-63.886719-15.175781 0-29.464843 7.144531-38.578125 19.289062l-9.535156 12.710938-9.535156-12.710938c-9.105469-12.144531-23.394532-19.289062-38.578125-19.289062-35.277344 0-63.886719 28.609375-63.886719 63.886719 0 10.578125 2.625 20.984375 7.640625 30.289062l38.359375 71.238281c6.160156 11.449219 18.105469 18.585938 31.097656 18.585938 11.804688 0 22.839844-5.902344 29.390625-15.726562l5.511719-8.273438 5.511719 8.273438c6.550781 9.824218 17.585937 15.726562 29.390625 15.726562 12.992187 0 24.9375-7.136719 31.097656-18.574219zm0 0" fill="#af4a47"/><path d="m217.535156 59.289062-9.535156 12.710938-9.535156-12.710938c-9.105469-12.144531-23.394532-19.289062-38.578125-19.289062-35.277344 0-63.886719 28.609375-63.886719 63.886719 0 10.578125 2.625 20.984375 7.640625 30.289062l34.894531 64.808594c75.183594-7.464844 133.464844-59.632813 133.464844-122.984375 0-12.238281-2.257812-24.039062-6.304688-35.207031-3.136718-.472657-6.320312-.792969-9.582031-.792969-15.183593 0-29.472656 7.144531-38.578125 19.289062zm0 0" fill="#e4725f"/><path d="m288 88c0 8.835938-7.164062 16-16 16s-16-7.164062-16-16 7.164062-16 16-16 16 7.164062 16 16zm0 0" fill="#fff"/><path d="m96 424h200v16h-200zm0 0" fill="#2d4d83"/><path d="m312 440h56v16h-56zm0 0" fill="#2d4d83"/><path d="m96 264h200v16h-200zm0 0" fill="#d1a339"/><path d="m312 280h56v16h-56zm0 0" fill="#d1a339"/><path d="m48 344h200v16h-200zm0 0" fill="#568e53"/><path d="m264 360h56v16h-56zm0 0" fill="#568e53"/></svg>