<?xml version="1.0"?>
<svg xmlns="http://www.w3.org/2000/svg" height="512px" viewBox="0 -13 464.00003 464" width="512px" class=""><g><path d="m454.101562 132.902344v265.097656c.007813 7.960938-3.148437 15.597656-8.777343 21.226562-5.628907 5.628907-13.265625 8.785157-21.222657 8.773438h-384.203124c-7.957032.011719-15.59375-3.144531-21.222657-8.773438-5.628906-5.628906-8.785156-13.265624-8.777343-21.226562v-265.097656zm-38.101562 174.597656v-48h-48v48zm0-80v-48h-48v48zm-80 80v-48h-48v48zm0-80v-48h-48v48zm-80 160v-48h-48v48zm0-80v-48h-48v48zm0-80v-48h-48v48zm-80 160v-48h-48v48zm0-80v-48h-48v48zm0-80v-48h-48v48zm-80 160v-48h-48v48zm0-80v-48h-48v48zm0-80v-48h-48v48zm0 0" fill="#00efd1" data-original="#00EFD1" class="" data-old_color="#00efd1" style="fill:#BBEDB7"/><path d="m454.101562 76.199219v56.601562h-444.203124v-56.601562c-.007813-7.957031 3.148437-15.59375 8.777343-21.222657 5.628907-5.628906 13.265625-8.785156 21.222657-8.777343h33v31.203125h57.101562v-31.203125h204.398438v31.203125h57.101562v-31.203125h32.5c16.597656-.027344 30.074219 13.402343 30.101562 30zm0 0" fill="#00acea" data-original="#00ACEA" class="" data-old_color="#00acea" style="fill:#99CBDD"/><path d="m368 259.5h48v48h-48zm0 0" fill="#fedb41" data-original="#FEDB41" class="active-path" data-old_color="#fedb41" style="fill:#F5DE77"/><path d="m368 179.5h48v48h-48zm0 0" fill="#fedb41" data-original="#FEDB41" class="active-path" data-old_color="#fedb41" style="fill:#F5DE77"/><path d="m334.5 46.199219v-36.199219h57.101562v67.5h-57.101562zm0 0" fill="#00efd1" data-original="#00EFD1" class="" data-old_color="#00efd1" style="fill:#BBEDB7"/><path d="m288 259.5h48v48h-48zm0 0" fill="#fedb41" data-original="#FEDB41" class="active-path" data-old_color="#fedb41" style="fill:#F5DE77"/><path d="m288 179.5h48v48h-48zm0 0" fill="#fedb41" data-original="#FEDB41" class="active-path" data-old_color="#fedb41" style="fill:#F5DE77"/><path d="m208 339.5h48v48h-48zm0 0" fill="#fedb41" data-original="#FEDB41" class="active-path" data-old_color="#fedb41" style="fill:#F5DE77"/><path d="m208 259.5h48v48h-48zm0 0" fill="#fedb41" data-original="#FEDB41" class="active-path" data-old_color="#fedb41" style="fill:#F5DE77"/><path d="m208 179.5h48v48h-48zm0 0" fill="#fedb41" data-original="#FEDB41" class="active-path" data-old_color="#fedb41" style="fill:#F5DE77"/><path d="m128 339.5h48v48h-48zm0 0" fill="#fedb41" data-original="#FEDB41" class="active-path" data-old_color="#fedb41" style="fill:#F5DE77"/><path d="m128 259.5h48v48h-48zm0 0" fill="#fedb41" data-original="#FEDB41" class="active-path" data-old_color="#fedb41" style="fill:#F5DE77"/><path d="m128 179.5h48v48h-48zm0 0" fill="#fedb41" data-original="#FEDB41" class="active-path" data-old_color="#fedb41" style="fill:#F5DE77"/><path d="m130.101562 46.199219v31.300781h-57.101562v-67.5h57.101562zm0 0" fill="#00efd1" data-original="#00EFD1" class="" data-old_color="#00efd1" style="fill:#BBEDB7"/><path d="m48 339.5h48v48h-48zm0 0" fill="#00acea" data-original="#00ACEA" class="" data-old_color="#00acea" style="fill:#99CBDD"/><path d="m48 259.5h48v48h-48zm0 0" fill="#00acea" data-original="#00ACEA" class="" data-old_color="#00acea" style="fill:#99CBDD"/><path d="m48 179.5h48v48h-48zm0 0" fill="#00acea" data-original="#00ACEA" class="" data-old_color="#00acea" style="fill:#99CBDD"/><g fill="#083863"><path d="m424.101562 36h-22.101562v-26c-.171875-5.605469-4.789062-10.0507812-10.398438-10h-57.101562c-5.5 0-10.5 4.5-10.5 10v26h-184v-26c.015625-2.640625-1.019531-5.175781-2.878906-7.050781-1.855469-1.875-4.382813-2.9375002-7.019532-2.949219h-57.101562c-5.515625.015625-9.984375 4.484375-10 10v26h-23.101562c-22 0-39.898438 18.199219-39.898438 40.199219v321.800781c-.0195312 22.058594 17.839844 39.960938 39.898438 40h384.203124c22.058594-.039062 39.917969-17.941406 39.898438-40v-321.800781c0-22-17.898438-40.199219-39.898438-40.199219zm-80.101562-16h38v47h-38zm-261 0h37v47h-37zm-43.101562 36h23.101562v21.5c0 5.5 4.398438 9.5 10 9.5h57.101562c5.5 0 9.898438-4 9.898438-9.5v-21.5h184v21.5c0 5.5 5 9.5 10.5 9.5h57.101562c5.5 0 10.398438-4 10.398438-9.5v-21.5h22.101562c11.050782.136719 19.929688 9.148438 19.898438 20.199219v46.800781h-424v-46.800781c-.03125-11.050781 8.847656-20.0625 19.898438-20.199219zm384.203124 362h-384.203124c-11.011719-.039062-19.914063-8.988281-19.898438-20v-255h424v255c.015625 11.011719-8.886719 19.960938-19.898438 20zm0 0" data-original="#083863" class=""/><path d="m266 180c-.015625-5.515625-4.484375-9.984375-10-10h-48c-5.515625.015625-9.984375 4.484375-10 10v48c.015625 5.515625 4.484375 9.984375 10 10h48c5.515625-.015625 9.984375-4.484375 10-10zm-20 38h-28v-28h28zm0 0" data-original="#083863" class=""/><path d="m266 260c-.015625-5.515625-4.484375-9.984375-10-10h-48c-5.515625.015625-9.984375 4.484375-10 10v48c.015625 5.515625 4.484375 9.984375 10 10h48c5.515625-.015625 9.984375-4.484375 10-10zm-20 38h-28v-28h28zm0 0" data-original="#083863" class=""/><path d="m266 340c-.015625-5.515625-4.484375-9.984375-10-10h-48c-5.515625.015625-9.984375 4.484375-10 10v48c.015625 5.515625 4.484375 9.984375 10 10h48c5.515625-.015625 9.984375-4.484375 10-10zm-20 38h-28v-28h28zm0 0" data-original="#083863" class=""/><path d="m186 180c-.015625-5.515625-4.484375-9.984375-10-10h-48c-5.515625.015625-9.984375 4.484375-10 10v48c.015625 5.515625 4.484375 9.984375 10 10h48c5.515625-.015625 9.984375-4.484375 10-10zm-20 38h-28v-28h28zm0 0" data-original="#083863" class=""/><path d="m186 260c-.015625-5.515625-4.484375-9.984375-10-10h-48c-5.515625.015625-9.984375 4.484375-10 10v48c.015625 5.515625 4.484375 9.984375 10 10h48c5.515625-.015625 9.984375-4.484375 10-10zm-20 38h-28v-28h28zm0 0" data-original="#083863" class=""/><path d="m186 340c-.015625-5.515625-4.484375-9.984375-10-10h-48c-5.515625.015625-9.984375 4.484375-10 10v48c.015625 5.515625 4.484375 9.984375 10 10h48c5.515625-.015625 9.984375-4.484375 10-10zm-20 38h-28v-28h28zm0 0" data-original="#083863" class=""/><path d="m346 180c-.015625-5.515625-4.484375-9.984375-10-10h-48c-5.515625.015625-9.984375 4.484375-10 10v48c.015625 5.515625 4.484375 9.984375 10 10h48c5.515625-.015625 9.984375-4.484375 10-10zm-20 38h-28v-28h28zm0 0" data-original="#083863" class=""/><path d="m346 260c-.015625-5.515625-4.484375-9.984375-10-10h-48c-5.515625.015625-9.984375 4.484375-10 10v48c.015625 5.515625 4.484375 9.984375 10 10h48c5.515625-.015625 9.984375-4.484375 10-10zm-20 38h-28v-28h28zm0 0" data-original="#083863" class=""/><path d="m426 180c-.015625-5.515625-4.484375-9.984375-10-10h-48c-5.515625.015625-9.984375 4.484375-10 10v48c.015625 5.515625 4.484375 9.984375 10 10h48c5.515625-.015625 9.984375-4.484375 10-10zm-20 38h-28v-28h28zm0 0" data-original="#083863" class=""/><path d="m426 260c-.015625-5.515625-4.484375-9.984375-10-10h-48c-5.515625.015625-9.984375 4.484375-10 10v48c.015625 5.515625 4.484375 9.984375 10 10h48c5.515625-.015625 9.984375-4.484375 10-10zm-20 38h-28v-28h28zm0 0" data-original="#083863" class=""/><path d="m106 180c-.015625-5.515625-4.484375-9.984375-10-10h-48c-5.515625.015625-9.984375 4.484375-10 10v48c.015625 5.515625 4.484375 9.984375 10 10h48c5.515625-.015625 9.984375-4.484375 10-10zm-20 38h-28v-28h28zm0 0" data-original="#083863" class=""/><path d="m106 260c-.015625-5.515625-4.484375-9.984375-10-10h-48c-5.515625.015625-9.984375 4.484375-10 10v48c.015625 5.515625 4.484375 9.984375 10 10h48c5.515625-.015625 9.984375-4.484375 10-10zm-20 38h-28v-28h28zm0 0" data-original="#083863" class=""/><path d="m106 340c-.015625-5.515625-4.484375-9.984375-10-10h-48c-5.515625.015625-9.984375 4.484375-10 10v48c.015625 5.515625 4.484375 9.984375 10 10h48c5.515625-.015625 9.984375-4.484375 10-10zm-20 38h-28v-28h28zm0 0" data-original="#083863" class=""/></g></g> </svg>
